<svg width="86" height="36" viewBox="0 0 86 36" fill="none" xmlns="http://www.w3.org/2000/svg">
<path d="M11.928 22.808H5.256L4.152 26H0.624L6.648 9.224H10.56L16.584 26H13.032L11.928 22.808ZM11.016 20.12L8.592 13.112L6.168 20.12H11.016ZM16.9717 19.304C16.9717 17.96 17.2357 16.768 17.7637 15.728C18.3077 14.688 19.0437 13.888 19.9717 13.328C20.8997 12.768 21.9317 12.488 23.0677 12.488C23.9317 12.488 24.7557 12.68 25.5397 13.064C26.3237 13.432 26.9477 13.928 27.4117 14.552V8.24H30.8197V26H27.4117V24.032C26.9957 24.688 26.4117 25.216 25.6597 25.616C24.9077 26.016 24.0357 26.216 23.0437 26.216C21.9237 26.216 20.8997 25.928 19.9717 25.352C19.0437 24.776 18.3077 23.968 17.7637 22.928C17.2357 21.872 16.9717 20.664 16.9717 19.304ZM27.4357 19.352C27.4357 18.536 27.2757 17.84 26.9557 17.264C26.6357 16.672 26.2037 16.224 25.6597 15.92C25.1157 15.6 24.5317 15.44 23.9077 15.44C23.2837 15.44 22.7077 15.592 22.1797 15.896C21.6517 16.2 21.2197 16.648 20.8837 17.24C20.5637 17.816 20.4037 18.504 20.4037 19.304C20.4037 20.104 20.5637 20.808 20.8837 21.416C21.2197 22.008 21.6517 22.464 22.1797 22.784C22.7237 23.104 23.2997 23.264 23.9077 23.264C24.5317 23.264 25.1157 23.112 25.6597 22.808C26.2037 22.488 26.6357 22.04 26.9557 21.464C27.2757 20.872 27.4357 20.168 27.4357 19.352Z" fill="white"/>
<path d="M56.8988 19.064C56.8988 19.544 56.8668 19.976 56.8028 20.36H47.0828C47.1628 21.32 47.4988 22.072 48.0908 22.616C48.6828 23.16 49.4108 23.432 50.2748 23.432C51.5228 23.432 52.4108 22.896 52.9388 21.824H56.5628C56.1788 23.104 55.4428 24.16 54.3548 24.992C53.2668 25.808 51.9308 26.216 50.3468 26.216C49.0668 26.216 47.9148 25.936 46.8908 25.376C45.8828 24.8 45.0908 23.992 44.5148 22.952C43.9548 21.912 43.6748 20.712 43.6748 19.352C43.6748 17.976 43.9548 16.768 44.5148 15.728C45.0748 14.688 45.8588 13.888 46.8668 13.328C47.8748 12.768 49.0348 12.488 50.3468 12.488C51.6108 12.488 52.7388 12.76 53.7308 13.304C54.7388 13.848 55.5148 14.624 56.0588 15.632C56.6188 16.624 56.8988 17.768 56.8988 19.064ZM53.4188 18.104C53.4028 17.24 53.0908 16.552 52.4828 16.04C51.8748 15.512 51.1308 15.248 50.2508 15.248C49.4188 15.248 48.7148 15.504 48.1388 16.016C47.5788 16.512 47.2348 17.208 47.1068 18.104H53.4188ZM57.4873 19.352C57.4873 17.976 57.7673 16.776 58.3273 15.752C58.8873 14.712 59.6633 13.912 60.6553 13.352C61.6473 12.776 62.7833 12.488 64.0633 12.488C65.7113 12.488 67.0713 12.904 68.1433 13.736C69.2313 14.552 69.9593 15.704 70.3273 17.192H66.7033C66.5113 16.616 66.1833 16.168 65.7193 15.848C65.2713 15.512 64.7113 15.344 64.0393 15.344C63.0793 15.344 62.3193 15.696 61.7593 16.4C61.1993 17.088 60.9193 18.072 60.9193 19.352C60.9193 20.616 61.1993 21.6 61.7593 22.304C62.3193 22.992 63.0793 23.336 64.0393 23.336C65.3993 23.336 66.2873 22.728 66.7033 21.512H70.3273C69.9593 22.952 69.2313 24.096 68.1433 24.944C67.0553 25.792 65.6953 26.216 64.0633 26.216C62.7833 26.216 61.6473 25.936 60.6553 25.376C59.6633 24.8 58.8873 24 58.3273 22.976C57.7673 21.936 57.4873 20.728 57.4873 19.352ZM79.2768 12.512C80.2848 12.512 81.1808 12.736 81.9648 13.184C82.7488 13.616 83.3568 14.264 83.7888 15.128C84.2368 15.976 84.4608 17 84.4608 18.2V26H81.1008V18.656C81.1008 17.6 80.8368 16.792 80.3088 16.232C79.7808 15.656 79.0608 15.368 78.1488 15.368C77.2208 15.368 76.4848 15.656 75.9408 16.232C75.4128 16.792 75.1488 17.6 75.1488 18.656V26H71.7888V8.24H75.1488V14.36C75.5808 13.784 76.1568 13.336 76.8768 13.016C77.5968 12.68 78.3968 12.512 79.2768 12.512Z" fill="#76E9F0"/>
<path d="M36.7697 24.3917C36.7797 24.8577 36.8524 25.3529 37.2179 25.7184C37.9132 26.4137 39.3336 26.3847 40 25.7184C40.3395 25.3788 40.3196 24.9024 40.2863 24.412L39.6612 15.3316L36.5755 15.2654L36.7697 24.3917Z" fill="#76E9F0"/>
<path d="M42.9972 8.27111L41.0833 8.23038C40.9934 8.22846 40.9085 8.26252 40.8462 8.3248L40.6121 8.55892L40.3677 8.31459C40.3028 8.24961 40.2159 8.21236 40.1264 8.20999L36.2987 8.12852C35.5312 8.11221 34.2451 8.08484 32.977 9.35296C31.7098 10.6201 31.7351 11.8077 31.7526 12.6746C31.7555 12.8115 31.8404 12.9367 31.9683 12.9915C32.0958 13.0468 32.2411 13.0208 32.3357 12.9262C34.2243 11.0376 35.2795 11.6555 35.9089 12.2849C36.4318 12.8077 36.5462 13.4897 36.5678 13.8738L39.6941 13.9403C39.8159 13.2341 40.059 12.301 40.3589 12.052L40.6936 12.3867C40.7586 12.4517 40.8455 12.4889 40.9349 12.4913L43.3273 12.5422C43.4167 12.5436 43.5021 12.5101 43.5644 12.4478L43.5723 12.4398C43.6355 12.3728 43.6661 12.2816 43.6574 12.1886L43.3418 8.59503C43.326 8.41631 43.1757 8.2754 42.9972 8.27111Z" fill="#76E9F0"/>
</svg>
