<svg width="150" height="75" viewBox="0 0 150 75" fill="none" xmlns="http://www.w3.org/2000/svg">
<rect width="150" height="75" fill="#3639A4"/>
<path d="M41.928 41.808H35.256L34.152 45H30.624L36.648 28.224H40.56L46.584 45H43.032L41.928 41.808ZM41.016 39.12L38.592 32.112L36.168 39.12H41.016ZM46.9717 38.304C46.9717 36.96 47.2357 35.768 47.7637 34.728C48.3077 33.688 49.0437 32.888 49.9717 32.328C50.8997 31.768 51.9317 31.488 53.0677 31.488C53.9317 31.488 54.7557 31.68 55.5397 32.064C56.3237 32.432 56.9477 32.928 57.4117 33.552V27.24H60.8197V45H57.4117V43.032C56.9957 43.688 56.4117 44.216 55.6597 44.616C54.9077 45.016 54.0357 45.216 53.0437 45.216C51.9237 45.216 50.8997 44.928 49.9717 44.352C49.0437 43.776 48.3077 42.968 47.7637 41.928C47.2357 40.872 46.9717 39.664 46.9717 38.304ZM57.4357 38.352C57.4357 37.536 57.2757 36.84 56.9557 36.264C56.6357 35.672 56.2037 35.224 55.6597 34.92C55.1157 34.6 54.5317 34.44 53.9077 34.44C53.2837 34.44 52.7077 34.592 52.1797 34.896C51.6517 35.2 51.2197 35.648 50.8837 36.24C50.5637 36.816 50.4037 37.504 50.4037 38.304C50.4037 39.104 50.5637 39.808 50.8837 40.416C51.2197 41.008 51.6517 41.464 52.1797 41.784C52.7237 42.104 53.2997 42.264 53.9077 42.264C54.5317 42.264 55.1157 42.112 55.6597 41.808C56.2037 41.488 56.6357 41.04 56.9557 40.464C57.2757 39.872 57.4357 39.168 57.4357 38.352Z" fill="white"/>
<path d="M86.8988 38.064C86.8988 38.544 86.8668 38.976 86.8028 39.36H77.0828C77.1628 40.32 77.4988 41.072 78.0908 41.616C78.6828 42.16 79.4108 42.432 80.2748 42.432C81.5228 42.432 82.4108 41.896 82.9388 40.824H86.5628C86.1788 42.104 85.4428 43.16 84.3548 43.992C83.2668 44.808 81.9308 45.216 80.3468 45.216C79.0668 45.216 77.9148 44.936 76.8908 44.376C75.8828 43.8 75.0908 42.992 74.5148 41.952C73.9548 40.912 73.6748 39.712 73.6748 38.352C73.6748 36.976 73.9548 35.768 74.5148 34.728C75.0748 33.688 75.8588 32.888 76.8668 32.328C77.8748 31.768 79.0348 31.488 80.3468 31.488C81.6108 31.488 82.7388 31.76 83.7308 32.304C84.7388 32.848 85.5148 33.624 86.0588 34.632C86.6188 35.624 86.8988 36.768 86.8988 38.064ZM83.4188 37.104C83.4028 36.24 83.0908 35.552 82.4828 35.04C81.8748 34.512 81.1308 34.248 80.2508 34.248C79.4188 34.248 78.7148 34.504 78.1388 35.016C77.5788 35.512 77.2348 36.208 77.1068 37.104H83.4188ZM87.4873 38.352C87.4873 36.976 87.7673 35.776 88.3273 34.752C88.8873 33.712 89.6633 32.912 90.6553 32.352C91.6473 31.776 92.7833 31.488 94.0633 31.488C95.7113 31.488 97.0713 31.904 98.1433 32.736C99.2313 33.552 99.9593 34.704 100.327 36.192H96.7033C96.5113 35.616 96.1833 35.168 95.7193 34.848C95.2713 34.512 94.7113 34.344 94.0393 34.344C93.0793 34.344 92.3193 34.696 91.7593 35.4C91.1993 36.088 90.9193 37.072 90.9193 38.352C90.9193 39.616 91.1993 40.6 91.7593 41.304C92.3193 41.992 93.0793 42.336 94.0393 42.336C95.3993 42.336 96.2873 41.728 96.7033 40.512H100.327C99.9593 41.952 99.2313 43.096 98.1433 43.944C97.0553 44.792 95.6953 45.216 94.0633 45.216C92.7833 45.216 91.6473 44.936 90.6553 44.376C89.6633 43.8 88.8873 43 88.3273 41.976C87.7673 40.936 87.4873 39.728 87.4873 38.352ZM109.277 31.512C110.285 31.512 111.181 31.736 111.965 32.184C112.749 32.616 113.357 33.264 113.789 34.128C114.237 34.976 114.461 36 114.461 37.2V45H111.101V37.656C111.101 36.6 110.837 35.792 110.309 35.232C109.781 34.656 109.061 34.368 108.149 34.368C107.221 34.368 106.485 34.656 105.941 35.232C105.413 35.792 105.149 36.6 105.149 37.656V45H101.789V27.24H105.149V33.36C105.581 32.784 106.157 32.336 106.877 32.016C107.597 31.68 108.397 31.512 109.277 31.512Z" fill="#76E9F0"/>
<path d="M66.7697 43.3917C66.7797 43.8577 66.9703 44.3003 67.3358 44.6658C68.0312 45.3611 69.1384 45.3847 69.8047 44.7184C70.1442 44.3788 70.3196 43.9024 70.2863 43.412L69.6612 34.3316L66.5755 34.2654L66.7697 43.3917Z" fill="#76E9F0"/>
<path d="M72.9972 27.2711L71.0833 27.2304C70.9934 27.2285 70.9085 27.2625 70.8462 27.3248L70.6121 27.5589L70.3677 27.3146C70.3028 27.2496 70.2159 27.2124 70.1264 27.21L66.2987 27.1285C65.5312 27.1122 64.2451 27.0848 62.977 28.353C61.7098 29.6201 61.7351 30.8077 61.7526 31.6746C61.7555 31.8115 61.8404 31.9367 61.9684 31.9915C62.0958 32.0468 62.2411 32.0208 62.3357 31.9262C64.2243 30.0376 65.2795 30.6555 65.9089 31.2849C66.4318 31.8077 66.5462 32.4897 66.5678 32.8738L69.6941 32.9403C69.8159 32.2341 70.059 31.301 70.3589 31.052L70.6936 31.3867C70.7586 31.4517 70.8455 31.4889 70.9349 31.4913L73.3273 31.5422C73.4167 31.5436 73.5021 31.5101 73.5644 31.4478L73.5724 31.4398C73.6355 31.3728 73.6661 31.2816 73.6574 31.1886L73.3418 27.595C73.326 27.4163 73.1757 27.2754 72.9972 27.2711Z" fill="#76E9F0"/>
</svg>
